<?xml version="1.0" encoding="utf-8"?><svg xmlns="http://www.w3.org/2000/svg" xmlns:xlink="http://www.w3.org/1999/xlink"><symbol viewBox="0 0 407.436 407.436" id="article-chevron-left" xmlns="http://www.w3.org/2000/svg"><path d="M315.869 21.178L294.621 0 91.566 203.718l203.055 203.718 21.248-21.178-181.945-182.54z"/></symbol><symbol viewBox="0 0 407.436 407.436" id="article-chevron-right" xmlns="http://www.w3.org/2000/svg"><path d="M112.814 0L91.566 21.178l181.946 182.54-181.946 182.54 21.248 21.178 203.055-203.718z"/></symbol><symbol viewBox="0 0 20 19" id="chevron-left" xmlns="http://www.w3.org/2000/svg"><path d="M18.75 8.003H3.925l4.538-5.45a1.252 1.252 0 00-1.925-1.6l-6.25 7.5a1.43 1.43 0 00-.113.187c0 .063 0 .1-.087.163a1.25 1.25 0 00-.088.45c.001.154.03.307.088.45 0 .062 0 .1.087.162.033.066.07.128.112.188l6.25 7.5a1.25 1.25 0 001.763.162 1.25 1.25 0 00.162-1.762l-4.537-5.45H18.75a1.25 1.25 0 000-2.5z"/></symbol><symbol viewBox="0 0 6 10" id="chevron-left-mini" xmlns="http://www.w3.org/2000/svg"><path opacity=".4" d="M5 1L1 5l4 4"/></symbol><symbol viewBox="0 0 20 19" id="chevron-right" xmlns="http://www.w3.org/2000/svg"><path d="M1.25 8.003h14.825l-4.537-5.45a1.251 1.251 0 111.925-1.6l6.25 7.5c.041.06.08.122.112.187 0 .063 0 .1.088.163.056.143.086.296.087.45a1.25 1.25 0 01-.087.45c0 .062 0 .1-.088.162-.033.066-.07.128-.113.188l-6.25 7.5a1.25 1.25 0 01-.962.45 1.25 1.25 0 01-.963-2.05l4.538-5.45H1.25a1.25 1.25 0 010-2.5z"/></symbol><symbol viewBox="0 0 6 10" id="chevron-right-mini" xmlns="http://www.w3.org/2000/svg"><path opacity=".4" d="M1 1l4 4-4 4"/></symbol><symbol viewBox="0 0 11 20" id="facebook" xmlns="http://www.w3.org/2000/svg"><path d="M10.586.004L7.947 0c-2.964 0-4.88 1.932-4.88 4.922v2.27H.416A.411.411 0 000 7.598v3.288c0 .226.186.408.415.408h2.653v8.297a.41.41 0 00.415.408h3.46c.23 0 .416-.183.416-.408v-8.297h3.101a.41.41 0 00.415-.408l.001-3.288a.405.405 0 00-.121-.288.419.419 0 00-.294-.12H7.36V5.268c0-.925.224-1.394 1.449-1.394l1.777-.001c.23 0 .415-.183.415-.408V.412a.411.411 0 00-.414-.408z"/></symbol><symbol viewBox="0 0 22 15" id="google" xmlns="http://www.w3.org/2000/svg"><path d="M.004 7.32C-.126 3.844 2.87.633 6.294.59c1.745-.151 3.443.537 4.764 1.66a30.352 30.352 0 01-1.682 1.764c-1.163-.718-2.563-1.265-3.921-.78-2.192.635-3.52 3.264-2.708 5.443.672 2.275 3.395 3.523 5.53 2.567 1.105-.402 1.834-1.438 2.153-2.551-1.266-.026-2.533-.01-3.8-.045-.003-.766-.006-1.529-.003-2.295 2.112-.003 4.228-.01 6.343.01.13 1.876-.142 3.884-1.343 5.39-1.643 2.15-4.68 2.78-7.151 1.937-2.622-.874-4.529-3.558-4.472-6.37zM18.01 3.682h1.983l.014 2.067c.663.007 1.33.01 1.993.013v2.06l-1.993.011c-.007.692-.01 1.38-.014 2.07-.663-.003-1.327 0-1.986 0-.007-.69-.007-1.378-.014-2.066-.663-.008-1.33-.01-1.993-.015v-2.06c.663-.003 1.327-.007 1.993-.014.004-.687.01-1.378.017-2.066z"/></symbol><symbol viewBox="0 0 20 21" id="instagram" xmlns="http://www.w3.org/2000/svg"><path fill-rule="evenodd" clip-rule="evenodd" d="M6.25.151h7.5C17.201.151 20 2.98 20 6.465v7.575c0 3.486-2.799 6.314-6.25 6.314h-7.5C2.799 20.354 0 17.526 0 14.04V6.465C0 2.979 2.799.15 6.25.15zm7.5 18.309c2.413 0 4.375-1.983 4.375-4.42V6.465c0-2.437-1.962-4.42-4.375-4.42h-7.5c-2.413 0-4.375 1.983-4.375 4.42v7.575c0 2.437 1.962 4.42 4.375 4.42h7.5z"/><path fill-rule="evenodd" clip-rule="evenodd" d="M5 10.252c0-2.789 2.239-5.05 5-5.05s5 2.261 5 5.05c0 2.79-2.239 5.051-5 5.051s-5-2.261-5-5.05zm1.875 0c0 1.74 1.402 3.157 3.125 3.157s3.125-1.417 3.125-3.157S11.723 7.096 10 7.096s-3.125 1.415-3.125 3.156z"/><path d="M15 5.202c.552 0 1-.452 1-1.01s-.448-1.01-1-1.01-1 .452-1 1.01.448 1.01 1 1.01z"/></symbol><symbol viewBox="0 0 20 18" id="twitter" xmlns="http://www.w3.org/2000/svg"><path d="M20 2.62a7.983 7.983 0 01-2.357.667A4.229 4.229 0 0019.448.942a8.058 8.058 0 01-2.606 1.029A4.04 4.04 0 0013.846.633c-2.265 0-4.103 1.898-4.103 4.238 0 .333.036.656.107.966-3.41-.176-6.434-1.864-8.458-4.429A4.327 4.327 0 00.836 3.54c0 1.47.725 2.768 1.826 3.528a3.976 3.976 0 01-1.859-.53v.053c0 2.054 1.415 3.767 3.292 4.156a3.969 3.969 0 01-1.853.074c.522 1.683 2.037 2.909 3.833 2.943A8.067 8.067 0 010 15.518a11.339 11.339 0 006.29 1.905c7.547 0 11.674-6.459 11.674-12.06a12.5 12.5 0 00-.012-.549A8.478 8.478 0 0020 2.62z"/></symbol><symbol viewBox="0 0 16 20" id="youtube" xmlns="http://www.w3.org/2000/svg"><path fill-rule="evenodd" clip-rule="evenodd" d="M5.049 7.665h-1.17l-.002-4.04L2.407.15h1.265l.746 2.58.735-2.573h1.28L5.05 3.622l-.001 4.043zm1.417-4.697c-.084.285-.126.68-.126 1.186V5.55c0 .462.022.808.07 1.04.045.23.122.428.232.59.108.162.26.285.457.366.196.082.434.12.717.12.253 0 .477-.046.673-.141.194-.094.354-.241.477-.438a1.7 1.7 0 00.244-.64c.038-.23.058-.589.058-1.078V4.036c0-.386-.02-.674-.062-.863a1.7 1.7 0 00-.23-.55 1.23 1.23 0 00-.475-.432 1.543 1.543 0 00-.739-.167c-.34 0-.621.087-.84.26-.22.172-.372.4-.456.684zm3.632 4.163a.75.75 0 00.267.338.778.778 0 00.456.127c.16 0 .302-.044.425-.133.124-.09.228-.222.313-.4l-.021.437h1.24V2.228h-.976v4.103a.407.407 0 01-.814 0V2.228H9.969v3.556c0 .453.008.755.022.908.015.152.05.298.107.44zM16 16.875v-5.66c0-1.358-1.178-2.47-2.618-2.47H2.618C1.178 8.745 0 9.857 0 11.215v5.66c0 1.357 1.177 2.468 2.618 2.468h10.764c1.44 0 2.618-1.11 2.618-2.468zm-6.419-3.996c-.266 0-.485.18-.485.4v2.975c0 .22.219.398.485.398.269 0 .488-.178.488-.398v-2.976c0-.22-.22-.4-.488-.4zm3.953 1.31H12.48l.005-.611c0-.272.223-.494.497-.494h.067c.274 0 .498.222.498.494l-.013.612zm-10.198 3.3v-5.962h1.333v-.883l-3.556-.006v.869l1.11.003v5.98h1.113zm2.887-5.074h1.112v5.073l-.893-.002.002-.657c-.24.515-1.2.93-1.7.569-.235-.169-.257-.449-.277-.71a6.415 6.415 0 00-.008-.11 7.343 7.343 0 01-.006-.552l.002-.456-.004-3.155h1.106l.005 3.206c0 .166-.003.306-.006.42-.004.187-.007.305.01.357.158.482.565.22.656-.027.017-.049.014-.152.009-.327a14.128 14.128 0 01-.008-.445v-3.184zm4.672 3.646l-.002-2.65c-.001-1.01-.757-1.615-1.784-.798l.005-1.97-1.111.002-.006 6.8.914-.014.083-.424c1.168 1.073 1.903.338 1.9-.946zm2.647-.347l.835-.004c.38 2.26-2.811 2.63-2.812.004v-1.58c0-.474.047-.847.142-1.12.094-.274.255-.477.467-.629.674-.486 2.008-.335 2.144.615.044.3.057.825.057 1.35v.719h-1.91v1.224c0 .249.206.451.456.451h.164c.25 0 .455-.202.455-.451v-.466l.001-.051.001-.062zM7.311 6.248c0 .298.222.542.493.542.27 0 .492-.243.492-.542V3.442c0-.299-.221-.542-.492-.542-.27 0-.493.243-.493.542v2.806z"/></symbol></svg>